# xmcd
#
# Track frame offsets: 
#        150
#        12271
#        25315
#        37881
#        49417
#        63021
#        76287
#        86096
#        99409
#        110085
#        122643
#        134384
#        145042
#        157922
#        169648
#        180395
#        191881
#        204018
#        218976
#        229139
#
# Disc length: 3208 seconds
#
# Revision: 0
# Processed by: cddbd v1.5.2PL0 Copyright (c) Steve Scherf et al.
# Submitted via: ExactAudioCopy v0.99pb5
#
DISCID=060c8614
DTITLE=Marty Robbins - 80 Original Hits And Rarities CD1
DYEAR=1900
DGENRE=Country
TTITLE0=I'll Go On Alone
TTITLE1=Ou're Breaking My Heart
TTITLE2=Couldn't Keep From Crying
TTITLE3=After You Leave
TTITLE4=A Castle In The Sky
TTITLE5=Sing Me Something Sentimental
TTITLE6=Call Me Up
TTITLE7=I'm Too Big To Cry
TTITLE8=T's A Pity What Money Can Do
TTITLE9=Your Heart's Turn To Break
TTITLE10=Pretty Words
TTITLE11=Don't Let Me Hang Around
TTITLE12=Pray For Me Mother Of Mine
TTITLE13=I'll Love You Till The Day I Die
TTITLE14=This Broken Heart Of Mine
TTITLE15=Long Gone Lonesome Blues
TTITLE16=Daddy Loves You
TTITLE17=Tennessee Toddy
TTITLE18=Mean Mama Blues
TTITLE19=Maybelline
EXTD=
EXTT0=
EXTT1=
EXTT2=
EXTT3=
EXTT4=
EXTT5=
EXTT6=
EXTT7=
EXTT8=
EXTT9=
EXTT10=
EXTT11=
EXTT12=
EXTT13=
EXTT14=
EXTT15=
EXTT16=
EXTT17=
EXTT18=
EXTT19=
PLAYORDER=
